<svg width="208" height="194" viewBox="0 0 208 194" fill="none" xmlns="http://www.w3.org/2000/svg">
<path d="M46.3329 38.5923C46.3329 36.5453 47.1966 34.582 48.734 33.1345C50.2713 31.687 52.3564 30.8738 54.5306 30.8738H71.4095C72.8485 30.8739 74.2621 31.2305 75.5083 31.908C76.7544 32.5854 77.7892 33.5598 78.5087 34.7331L86.9441 48.4874C88.0312 50.2612 88.3253 52.3689 87.7619 54.3469C87.1985 56.3249 85.8236 58.0111 83.9397 59.0347C82.0558 60.0582 79.8172 60.3352 77.7164 59.8047C75.6156 59.2742 73.8246 57.9796 72.7376 56.2058L66.6795 46.3108H54.5306C52.3564 46.3108 50.2713 45.4976 48.734 44.0501C47.1966 42.6026 46.3329 40.6394 46.3329 38.5923ZM206.04 100.842L178.668 145.478C177.948 146.651 176.913 147.625 175.667 148.303C174.421 148.98 173.007 149.337 171.568 149.337H122.424L97.4207 190.106C96.7012 191.279 95.6664 192.253 94.4202 192.931C93.1741 193.608 91.7605 193.965 90.3215 193.965H35.6022C34.1632 193.965 32.7497 193.608 31.5035 192.931C30.2573 192.253 29.2225 191.279 28.503 190.106L1.09828 145.478C0.378783 144.304 0 142.973 0 141.618C0 140.263 0.378783 138.932 1.09828 137.759L26.1339 96.9825L1.09828 56.2058C0.378783 55.0325 0 53.7015 0 52.3466C0 50.9917 0.378783 49.6607 1.09828 48.4874L28.503 3.85923C29.2225 2.68591 30.2573 1.71156 31.5035 1.03413C32.7497 0.356692 34.1632 3.44183e-05 35.6022 0H90.3379C91.7769 3.44183e-05 93.1905 0.356692 94.4366 1.03413C95.6828 1.71156 96.7176 2.68591 97.4371 3.85923L122.424 44.6282H171.519C172.958 44.6282 174.372 44.9848 175.618 45.6623C176.864 46.3397 177.899 47.3141 178.618 48.4874L206.04 93.1233C206.759 94.2966 207.138 95.6276 207.138 96.9825C207.138 98.3374 206.759 99.6684 206.04 100.842ZM17.6985 52.3466L40.3322 89.264H84.7143L107.807 51.6134L85.6079 15.4369H40.3322L17.6985 52.3466ZM107.791 142.352L84.7143 104.701H40.3322L17.6985 141.618L40.3322 178.528H85.6079L107.791 142.352ZM189.439 96.9825L166.806 60.0651H122.424L99.3471 97.7543L121.53 133.931H166.806L189.439 96.9825Z" fill="#DCEB2E"/>
</svg>
