<svg width="16" height="16" viewBox="0 0 16 16" fill="none" xmlns="http://www.w3.org/2000/svg">
<path fill-rule="evenodd" clip-rule="evenodd" d="M10.6667 2H5.33333C3.49239 2 2 3.49239 2 5.33333V10.6667C2 12.5076 3.49239 14 5.33333 14H10.6667C12.5076 14 14 12.5076 14 10.6667V5.33333C14 3.49239 12.5076 2 10.6667 2ZM12.8333 10.6667C12.8297 11.8617 11.8617 12.8297 10.6667 12.8333H5.33333C4.13823 12.8297 3.17033 11.8617 3.16667 10.6667V5.33333C3.17033 4.13823 4.13823 3.17033 5.33333 3.16667H10.6667C11.8617 3.17033 12.8297 4.13823 12.8333 5.33333V10.6667ZM11.1667 5.5C11.5349 5.5 11.8333 5.20152 11.8333 4.83333C11.8333 4.46515 11.5349 4.16667 11.1667 4.16667C10.7985 4.16667 10.5 4.46515 10.5 4.83333C10.5 5.20152 10.7985 5.5 11.1667 5.5ZM8 5C6.34315 5 5 6.34315 5 8C5 9.65687 6.34315 11 8 11C9.65687 11 11 9.65687 11 8C11.0018 7.2038 10.6863 6.43971 10.1233 5.87672C9.56027 5.31373 8.7962 4.99823 8 5ZM6.16667 8C6.16667 9.01253 6.98747 9.83333 8 9.83333C9.01253 9.83333 9.83333 9.01253 9.83333 8C9.83333 6.98747 9.01253 6.16667 8 6.16667C6.98747 6.16667 6.16667 6.98747 6.16667 8Z" fill="white"/>
</svg>
