<svg width="16" height="16" viewBox="0 0 16 16" fill="none" xmlns="http://www.w3.org/2000/svg">
<path d="M13.9819 4.47827C13.6723 4.89128 13.298 5.25155 12.8735 5.54517C12.8735 5.65306 12.8735 5.76095 12.8735 5.87483C12.8769 7.83407 12.0943 9.71273 10.7012 11.0897C9.30799 12.4666 7.42079 13.2266 5.46269 13.1993C4.33065 13.2031 3.2131 12.9446 2.1976 12.4441C2.14284 12.4201 2.10753 12.366 2.10774 12.3062V12.2403C2.10774 12.1542 2.17748 12.0845 2.2635 12.0845C3.37627 12.0477 4.44934 11.6619 5.33088 10.9816C4.32368 10.9613 3.41745 10.3646 3.00039 9.44713C2.97933 9.39707 2.98588 9.33953 3.0177 9.29547C3.04952 9.2514 3.10199 9.22713 3.15616 9.2314C3.46227 9.26213 3.77144 9.23367 4.06679 9.14747C2.95492 8.91667 2.11946 7.9936 1.9999 6.8638C1.99565 6.8096 2.01994 6.75713 2.06399 6.72527C2.10804 6.69347 2.16548 6.68687 2.21558 6.708C2.51395 6.83967 2.83605 6.909 3.16215 6.91173C2.18788 6.27231 1.76706 5.05603 2.13769 3.95081C2.17595 3.84342 2.26786 3.76408 2.37966 3.74196C2.49144 3.71983 2.60663 3.75819 2.68287 3.84293C3.99758 5.24217 5.80402 6.07597 7.72126 6.16853C7.67219 5.97257 7.64806 5.77117 7.64939 5.56915C7.66732 4.50981 8.32279 3.56614 9.30892 3.17991C10.295 2.79369 11.4166 3.04135 12.1487 3.80696C12.6476 3.7119 13.13 3.5443 13.5805 3.30947C13.6135 3.28887 13.6553 3.28887 13.6883 3.30947C13.7089 3.34249 13.7089 3.38435 13.6883 3.41736C13.4701 3.91701 13.1015 4.33608 12.6339 4.61613C13.0434 4.56864 13.4457 4.47205 13.8321 4.32843C13.8647 4.30628 13.9074 4.30628 13.9399 4.32843C13.9672 4.34089 13.9876 4.36474 13.9957 4.39361C14.0037 4.42249 13.9987 4.45345 13.9819 4.47827Z" fill="white"/>
</svg>
