<svg width="167" height="157" viewBox="0 0 167 157" fill="none" xmlns="http://www.w3.org/2000/svg">
<path d="M119.062 31.4H113.524V36.6334H119.062V31.4Z" fill="black"/>
<path d="M135.675 31.4H130.137V36.6334H135.675V31.4Z" fill="black"/>
<path d="M155.085 71.0687C157.415 69.7997 159.382 68.0129 160.816 65.8633C162.25 63.7136 163.108 61.2659 163.316 58.7322C163.523 56.1985 163.073 53.6553 162.006 51.3229C160.938 48.9904 159.285 46.9392 157.189 45.3468C157.611 44.2298 157.826 43.0526 157.826 41.8667C157.824 39.5476 157.007 37.2947 155.504 35.4619C154.001 33.629 151.895 32.3199 149.519 31.7402V23.55C149.519 17.3042 146.894 11.3141 142.221 6.89764C137.547 2.48115 131.209 6.23862e-07 124.6 6.23862e-07C117.99 6.23862e-07 111.652 2.48115 106.978 6.89764C102.305 11.3141 99.6796 17.3042 99.6796 23.55V31.7402C97.3036 32.3199 95.1985 33.629 93.6951 35.4619C92.1916 37.2947 91.3748 39.5476 91.373 41.8667C91.3727 43.0526 91.5882 44.2298 92.0098 45.3468C89.9141 46.9392 88.2609 48.9904 87.1933 51.3229C86.1258 53.6553 85.6762 56.1985 85.8835 58.7322C86.0908 61.2659 86.9487 63.7136 88.3829 65.8633C89.8171 68.0129 91.7844 69.7997 94.1142 71.0687C90.7286 73.2126 87.951 76.1084 86.0249 79.5025C84.0988 82.8966 83.083 86.6853 83.0663 90.5367C83.0587 85.7084 81.4825 80.9988 78.551 77.0445C75.6194 73.0901 71.4738 70.0817 66.6746 68.4258L52.6087 63.585V57.3573C55.1461 55.9608 57.367 54.1047 59.144 51.8956C60.9211 49.6864 62.2193 47.1675 62.9643 44.4833H63.6842C65.8873 44.4833 68.0001 43.6563 69.5579 42.1841C71.1157 40.712 71.9908 38.7153 71.9908 36.6333C71.9908 34.5514 71.1157 32.5547 69.5579 31.0825C68.0001 29.6104 65.8873 28.7833 63.6842 28.7833V20.9333C63.6842 15.3815 61.3504 10.057 57.1963 6.13123C53.0422 2.20547 47.408 0 41.5332 0C35.6584 0 30.0242 2.20547 25.87 6.13123C21.7159 10.057 19.3821 15.3815 19.3821 20.9333V28.7833C17.1791 28.7833 15.0663 29.6104 13.5085 31.0825C11.9507 32.5547 11.0755 34.5514 11.0755 36.6333C11.0755 38.7153 11.9507 40.712 13.5085 42.1841C15.0663 43.6563 17.1791 44.4833 19.3821 44.4833H20.1021C20.8471 47.1675 22.1453 49.6864 23.9223 51.8956C25.6993 54.1047 27.9202 55.9608 30.4577 57.3573V63.585L16.3918 68.4258C11.5925 70.0817 7.44692 73.0901 4.51538 77.0445C1.58384 80.9988 0.00769639 85.7084 0 90.5367V117.75H28.4364C28.92 117.743 29.3947 117.626 29.8208 117.41L60.8046 100.48C61.4432 100.137 62.1982 100.043 62.9089 100.218C63.6205 100.4 64.227 100.84 64.5955 101.444C64.964 102.047 65.0644 102.764 64.8748 103.437C64.7812 103.768 64.6176 104.078 64.3939 104.348C64.1703 104.617 63.8912 104.842 63.5734 105.007L53.9931 110.24C53.4676 110.534 53.0569 110.981 52.8223 111.514C52.5878 112.047 52.542 112.637 52.6918 113.197C52.8506 113.755 53.2002 114.247 53.686 114.597C54.1718 114.947 54.7665 115.136 55.3776 115.133H88.6041C89.3385 115.133 90.0427 115.409 90.562 115.9C91.0813 116.39 91.373 117.056 91.373 117.75C91.373 118.444 91.0813 119.11 90.562 119.6C90.0427 120.091 89.3385 120.367 88.6041 120.367H63.6842C62.9498 120.367 62.2456 120.642 61.7263 121.133C61.207 121.624 60.9153 122.289 60.9153 122.983C60.9153 123.677 61.207 124.343 61.7263 124.834C62.2456 125.324 62.9498 125.6 63.6842 125.6H99.6796C100.414 125.6 101.118 125.876 101.638 126.366C102.157 126.857 102.448 127.523 102.448 128.217C102.448 128.911 102.157 129.576 101.638 130.067C101.118 130.558 100.414 130.833 99.6796 130.833H63.6842C62.9498 130.833 62.2456 131.109 61.7263 131.6C61.207 132.09 60.9153 132.756 60.9153 133.45C60.9153 134.144 61.207 134.81 61.7263 135.3C62.2456 135.791 62.9498 136.067 63.6842 136.067H88.6041C89.3385 136.067 90.0427 136.342 90.562 136.833C91.0813 137.324 91.373 137.989 91.373 138.683C91.373 139.377 91.0813 140.043 90.562 140.534C90.0427 141.024 89.3385 141.3 88.6041 141.3H63.6842C62.9498 141.3 62.2456 141.576 61.7263 142.066C61.207 142.557 60.9153 143.223 60.9153 143.917C60.9153 144.611 61.207 145.276 61.7263 145.767C62.2456 146.258 62.9498 146.533 63.6842 146.533H77.5286C78.2629 146.533 78.9672 146.809 79.4865 147.3C80.0058 147.79 80.2975 148.456 80.2975 149.15C80.2975 149.844 80.0058 150.51 79.4865 151C78.9672 151.491 78.2629 151.767 77.5286 151.767H39.4288L28.9348 146.821C28.549 146.634 28.1222 146.536 27.6888 146.533H0V151.767H27.0243L37.5183 156.712C37.9041 156.899 38.3308 156.998 38.7643 157H77.5286C78.8579 157.001 80.1679 156.7 81.3486 156.123C82.5293 155.546 83.5463 154.709 84.314 153.684C85.0818 152.658 85.5779 151.474 85.7607 150.229C85.9435 148.985 85.8076 147.718 85.3645 146.533H127.368C127.802 146.531 128.229 146.432 128.614 146.245L139.108 141.3H166.133V136.067H138.444C138.01 136.069 137.584 136.168 137.198 136.354L126.704 141.3H96.4123C97.0673 139.612 97.0771 137.761 96.44 136.067H99.6796C101.883 136.067 103.995 135.24 105.553 133.767C107.111 132.295 107.986 130.299 107.986 128.217C107.986 126.135 107.111 124.138 105.553 122.666C103.995 121.194 101.883 120.367 99.6796 120.367H96.44C97.0771 118.673 97.0673 116.821 96.4123 115.133H102.448C103.183 115.133 103.887 114.858 104.406 114.367C104.926 113.876 105.217 113.211 105.217 112.517C105.217 111.823 104.926 111.157 104.406 110.666C103.887 110.176 103.183 109.9 102.448 109.9H77.5286C76.7942 109.9 76.09 109.624 75.5707 109.134C75.0514 108.643 74.7597 107.977 74.7597 107.283C74.7597 106.589 75.0514 105.924 75.5707 105.433C76.09 104.942 76.7942 104.667 77.5286 104.667H108.319C108.955 107.613 110.646 110.262 113.107 112.169C115.568 114.075 118.649 115.122 121.831 115.133H124.6V109.9H121.831C119.63 109.894 117.521 109.065 115.964 107.594C114.408 106.123 113.531 104.13 113.524 102.05C113.526 101.589 113.399 101.136 113.156 100.736C112.913 100.336 112.562 100.004 112.14 99.7735L102.559 94.5402C102.241 94.3749 101.962 94.1507 101.739 93.8809C101.515 93.6111 101.352 93.3013 101.258 92.9702C101.11 92.4679 101.125 91.9354 101.299 91.441C101.474 90.9465 101.801 90.5126 102.238 90.1949C102.675 89.8772 103.203 89.6902 103.754 89.6579C104.304 89.6255 104.853 89.7493 105.328 90.0133L136.312 106.943C136.738 107.159 137.213 107.276 137.696 107.283H166.133V90.5367C166.116 86.6853 165.1 82.8966 163.174 79.5025C161.248 76.1084 158.47 73.2126 155.085 71.0687ZM63.6842 34.0167C64.4186 34.0167 65.1228 34.2923 65.6421 34.7831C66.1614 35.2738 66.4531 35.9393 66.4531 36.6333C66.4531 37.3273 66.1614 37.9929 65.6421 38.4836C65.1228 38.9743 64.4186 39.25 63.6842 39.25V34.0167ZM19.3821 39.25C18.6478 39.25 17.9435 38.9743 17.4243 38.4836C16.905 37.9929 16.6133 37.3273 16.6133 36.6333C16.6133 35.9393 16.905 35.2738 17.4243 34.7831C17.9435 34.2923 18.6478 34.0167 19.3821 34.0167V39.25ZM24.9199 20.9333C24.9199 16.7694 26.6702 12.7761 29.7858 9.83176C32.9014 6.88744 37.1271 5.23333 41.5332 5.23333C45.9393 5.23333 50.1649 6.88744 53.2805 9.83176C56.3961 12.7761 58.1464 16.7694 58.1464 20.9333V23.4715C57.0881 23.2962 56.1062 22.8346 55.3199 22.1426C54.5336 21.4506 53.9765 20.5579 53.7162 19.5727L52.5256 15.072C52.3616 14.4533 51.9641 13.9126 51.4078 13.5514C50.8516 13.1902 50.1749 13.0335 49.5049 13.1106C48.835 13.1877 48.2179 13.4934 47.7697 13.9703C47.3215 14.4471 47.073 15.0622 47.0709 15.7C47.0644 17.78 46.1871 19.7731 44.6307 21.2439C43.0743 22.7147 40.9653 23.5438 38.7643 23.55H24.9199V20.9333ZM24.9199 39.25V28.7833H38.7643C40.8597 28.7807 42.9272 28.3296 44.8118 27.4641C46.6964 26.5985 48.3491 25.3409 49.646 23.7855C50.5527 25.1825 51.7947 26.3581 53.2715 27.2173C54.7482 28.0764 56.4183 28.595 58.1464 28.731V39.25C58.1464 43.4139 56.3961 47.4073 53.2805 50.3516C50.1649 53.2959 45.9393 54.95 41.5332 54.95C37.1271 54.95 32.9014 53.2959 29.7858 50.3516C26.6702 47.4073 24.9199 43.4139 24.9199 39.25ZM33.2542 109.481L27.6888 112.517H22.151V86.35H16.6133V112.517H5.53776V90.5367C5.54927 86.7781 6.77882 83.1131 9.06092 80.0348C11.343 76.9566 14.5682 74.6128 18.3023 73.319L22.5664 71.8537L28.1318 79.9392C28.3632 80.2613 28.6666 80.5313 29.0207 80.7303C29.3748 80.9293 29.7708 81.0522 30.1808 81.0905C30.2712 81.1121 30.3645 81.121 30.4577 81.1167C31.1932 81.1187 31.8998 80.8459 32.4236 80.3578L33.8911 78.9448L35.9124 81.797L33.2542 109.481ZM30.9007 74.3657L27.9103 70.022L33.0604 68.2688L35.94 69.6295L30.9007 74.3657ZM39.1242 106.289L41.284 83.7333H41.7824L43.7206 103.777L39.1242 106.289ZM42.8069 78.5H40.2595L37.9059 75.1768L41.5332 71.7228L45.1604 75.1768L42.8069 78.5ZM47.0709 63.7943L43.6375 65.4167H39.4288L35.9954 63.7943V59.503C39.6249 60.4101 43.4415 60.4101 47.0709 59.503V63.7943ZM50.0059 68.2688L55.1561 70.022L52.1657 74.3657L47.1263 69.6295L50.0059 68.2688ZM65.7055 109.9L66.3423 109.56C67.5465 108.888 68.5551 107.944 69.2773 106.812C69.2452 106.968 69.2267 107.125 69.222 107.283C69.2389 108.177 69.4168 109.062 69.748 109.9H65.7055ZM77.5286 99.4333C76.1148 99.4329 74.7247 99.777 73.4928 100.432C72.2608 101.088 71.2285 102.033 70.4956 103.175C70.5885 101.656 70.2031 100.144 69.3881 98.8315C68.6826 97.6807 67.6708 96.7245 66.4531 96.0578V86.35H60.9153V95.0112C59.9032 95.1586 58.9276 95.4777 58.0357 95.9532L48.9815 100.899L47.154 81.797L49.1753 78.9448L50.6428 80.3578C51.1665 80.8459 51.8731 81.1187 52.6087 81.1167C52.7018 81.121 52.7952 81.1121 52.8856 81.0905C53.2955 81.0522 53.6916 80.9293 54.0456 80.7303C54.3997 80.5313 54.7032 80.2613 54.9345 79.9392L60.5 71.8537L64.7641 73.319C68.4982 74.6128 71.7233 76.9566 74.0054 80.0348C76.2875 83.1131 77.5171 86.7781 77.5286 90.5367V99.4333ZM146.751 36.6333C148.218 36.6375 149.624 37.1902 150.661 38.1707C151.699 39.1513 152.284 40.48 152.288 41.8667C152.275 42.9164 151.949 43.9413 151.347 44.8235C151.141 45.1166 151.002 45.4475 150.94 45.7947C150.878 46.1418 150.894 46.4974 150.987 46.8383C151.069 47.1874 151.228 47.5164 151.452 47.8047C151.676 48.0929 151.961 48.3341 152.288 48.513C154.29 49.6005 155.881 51.254 156.837 53.2408C157.792 55.2275 158.065 57.4474 157.615 59.588C157.166 61.7286 156.018 63.6821 154.332 65.1737C152.646 66.6652 150.508 67.6196 148.218 67.9025L135.675 63.585V57.3573C139.038 55.5209 141.832 52.8814 143.775 49.7035C145.719 46.5255 146.745 42.9207 146.751 39.25V36.6333ZM131.965 67.8763L133.903 68.5305C131.023 69.9235 127.835 70.65 124.6 70.65C121.364 70.65 118.176 69.9235 115.296 68.5305L117.234 67.8763C117.771 67.6961 118.236 67.3626 118.563 66.9219C118.89 66.4812 119.065 65.9551 119.062 65.4167V59.503C120.869 59.9524 122.73 60.1811 124.6 60.1833C126.468 60.1716 128.328 59.9432 130.137 59.503V65.4167C130.134 65.9551 130.309 66.4812 130.636 66.9219C130.963 67.3626 131.428 67.6961 131.965 67.8763ZM124.6 54.95C120.195 54.9438 115.974 53.2877 112.859 50.3447C109.745 47.4017 107.993 43.412 107.986 39.25V28.6263C108.905 28.7347 109.83 28.7872 110.755 28.7833C114.978 28.6983 119.128 27.7333 122.911 25.9573C126.017 24.4761 129.428 23.6545 132.906 23.55C134.106 23.4594 135.312 23.5981 136.454 23.9578C137.596 24.3174 138.649 24.8907 139.551 25.6433C140.05 25.9835 140.604 26.376 141.213 26.7423V39.25C141.213 43.4139 139.462 47.4073 136.347 50.3516C133.231 53.2959 129.006 54.95 124.6 54.95ZM124.6 5.23333C129.481 5.23986 134.181 6.98699 137.758 10.1256C141.336 13.2642 143.529 17.5631 143.899 22.1632C143.566 21.9277 143.234 21.6922 142.874 21.4567C140.092 19.2557 136.53 18.1336 132.906 18.3167C128.684 18.4017 124.533 19.3667 120.751 21.1427C117.644 22.6239 114.233 23.4455 110.755 23.55C109.257 23.6209 107.761 23.3704 106.38 22.8173C106.031 22.6728 105.654 22.6014 105.273 22.608C105.528 17.9243 107.675 13.5115 111.27 10.279C114.866 7.04645 119.637 5.24053 124.6 5.23333ZM91.373 57.5667C91.3792 55.732 91.8936 53.9308 92.8652 52.3424C93.8367 50.754 95.2315 49.4338 96.9107 48.513C97.2384 48.3341 97.5233 48.0929 97.7473 47.8047C97.9713 47.5164 98.1296 47.1874 98.2121 46.8383C98.3052 46.4974 98.3213 46.1418 98.2592 45.7947C98.1972 45.4475 98.0585 45.1166 97.8522 44.8235C97.2499 43.9413 96.9236 42.9164 96.9107 41.8667C96.9151 40.48 97.5 39.1513 98.5376 38.1707C99.5751 37.1902 100.981 36.6375 102.448 36.6333V39.25C102.438 42.0009 103.006 44.7263 104.118 47.2686C105.23 49.8108 106.865 52.1192 108.928 54.0603C110.295 55.3501 111.842 56.4592 113.524 57.3573V63.585L100.981 67.9025C98.33 67.5637 95.8979 66.3313 94.1324 64.432C92.3669 62.5328 91.3869 60.0946 91.373 57.5667ZM121.831 92.9963L108.097 85.4865C107.152 84.9705 106.108 84.6356 105.026 84.501C103.944 84.3664 102.844 84.4347 101.79 84.702C100.735 84.9693 99.7469 85.4304 98.8813 86.0589C98.0157 86.6874 97.2896 87.471 96.7446 88.3648C96.1986 89.2581 95.8442 90.2443 95.7018 91.2671C95.5593 92.2899 95.6316 93.3292 95.9145 94.3256C96.1973 95.322 96.6853 96.2559 97.3503 97.0739C98.0154 97.892 98.8445 98.5781 99.7904 99.0932L100.427 99.4333H88.6041V90.5367C88.6156 86.7781 89.8452 83.1131 92.1273 80.0348C94.4094 76.9566 97.6345 74.6128 101.369 73.319L107.156 71.3303L121.831 89.8302V92.9963ZM116.819 74.7843C121.89 76.2497 127.309 76.2497 132.38 74.7843L124.6 84.5968L116.819 74.7843ZM160.595 102.05H155.057C155.056 99.8649 154.562 97.7051 153.607 95.715C152.652 93.725 151.258 91.9506 149.519 90.5105V86.35H143.982V91.5833C143.987 92.277 144.275 92.9422 144.785 93.4412C147.443 95.927 149.519 97.8895 149.519 102.05H138.444L127.368 96.0055V89.8302L142.043 71.3303L147.83 73.319C151.565 74.6128 154.79 76.9566 157.072 80.0348C159.354 83.1131 160.583 86.7781 160.595 90.5367V102.05Z" fill="black"/>
<path d="M124.599 44.4834C123.865 44.4834 123.161 44.2077 122.642 43.717C122.122 43.2262 121.831 42.5607 121.831 41.8667H116.293C116.293 43.9486 117.168 45.9453 118.726 47.4175C120.284 48.8896 122.396 49.7167 124.599 49.7167C126.803 49.7167 128.915 48.8896 130.473 47.4175C132.031 45.9453 132.906 43.9486 132.906 41.8667H127.368C127.368 42.5607 127.077 43.2262 126.557 43.717C126.038 44.2077 125.334 44.4834 124.599 44.4834Z" fill="black"/>
<path d="M35.9953 31.4H30.4575V36.6334H35.9953V31.4Z" fill="black"/>
<path d="M52.6088 31.4H47.071V36.6334H52.6088V31.4Z" fill="black"/>
<path d="M49.8397 41.8667H44.302C44.302 42.5607 44.0102 43.2262 43.491 43.717C42.9717 44.2077 42.2674 44.4834 41.5331 44.4834C40.7987 44.4834 40.0944 44.2077 39.5752 43.717C39.0559 43.2262 38.7642 42.5607 38.7642 41.8667H33.2264C33.2264 43.9486 34.1016 45.9453 35.6594 47.4175C37.2172 48.8896 39.33 49.7167 41.5331 49.7167C43.7361 49.7167 45.849 48.8896 47.4068 47.4175C48.9645 45.9453 49.8397 43.9486 49.8397 41.8667Z" fill="black"/>
</svg>
