<svg width="159" height="163" viewBox="0 0 159 163" fill="none" xmlns="http://www.w3.org/2000/svg">
<path d="M140.891 67.8086V123.297C140.891 128.959 136.296 133.896 130.504 133.896H93.528V145.244H98.6113C103.45 145.244 107.312 149.184 107.312 154.122C107.312 159.06 103.45 163 98.6113 163H42.2794C37.4405 163 33.5792 159.06 33.5792 154.122C33.5792 149.184 37.4405 145.244 42.2794 145.244H47.3627V133.896H10.3866C4.59453 133.896 0 128.959 0 123.297V28.3554C0 22.6943 4.59453 17.7564 10.3866 17.7564H60.9019V8.13005C60.9019 3.69094 64.2745 0 68.6247 0H151.277C155.383 0 159 3.69094 159 8.13005V59.9279C159 64.367 155.383 67.8086 151.277 67.8086H140.891ZM45.1877 68.3074C45.1877 71.0257 40.8375 71.0257 40.8375 68.3074V52.0223C40.8375 47.5832 44.4545 43.8923 48.8046 43.8923H60.8775V22.1955H10.3866C7.01399 22.1955 4.35014 24.9139 4.35014 28.3554V106.539H136.809V67.8086H126.423V89.7547C126.423 94.1939 122.806 97.6354 118.456 97.6354H71.0441H71.2885C70.5553 97.6354 69.8466 97.6354 69.3578 97.6354H48.8046C44.4545 97.6354 40.8375 94.1939 40.8375 89.7547V83.8442C40.8375 81.1259 45.1877 81.1259 45.1877 83.8442V89.7547C45.1877 91.4755 46.874 93.4457 48.8046 93.4457H63.5413C66.4496 90.7274 66.4496 79.6296 72.486 73.7191C75.3943 70.502 79.9888 69.0306 84.0945 69.7788C84.5833 69.28 85.0721 68.5568 85.5364 67.8086H68.6247C64.2745 67.8086 60.9019 64.367 60.9019 59.9279V48.3314H48.8291C46.8984 48.3314 45.2121 50.0522 45.2121 52.0223V68.3074H45.1877ZM87.0028 93.4706H118.431C120.362 93.4706 122.048 91.7498 122.048 89.7797V67.8335H119.629C115.034 71.5245 110.195 74.4922 105.845 76.9611C101.495 79.6795 97.3893 81.4002 93.9923 82.6222V83.121C93.2836 87.7846 90.6197 91.0017 87.0028 93.4706ZM22.7038 67.8086C27.2983 67.8086 30.9153 71.4995 30.9153 76.188C30.9153 80.6271 27.054 84.5675 22.7038 84.5675C18.1093 84.5675 14.4923 80.6271 14.4923 76.188C14.4923 71.4995 18.1093 67.8086 22.7038 67.8086ZM22.7038 71.9983C20.5287 71.9983 18.5981 73.9685 18.5981 76.188C18.5981 78.4076 20.5287 80.1284 22.7038 80.1284C24.8789 80.1284 26.5652 78.4076 26.5652 76.188C26.5652 73.9685 24.8789 71.9983 22.7038 71.9983ZM22.7038 27.6073C27.2983 27.6073 30.9153 31.2982 30.9153 35.9867C30.9153 40.6752 27.054 44.3661 22.7038 44.3661C18.1093 44.3661 14.4923 40.6752 14.4923 35.9867C14.4923 31.2982 18.1093 27.6073 22.7038 27.6073ZM22.7038 32.0464C20.5287 32.0464 18.5981 33.7671 18.5981 35.9867C18.5981 38.2062 20.5287 39.927 22.7038 39.927C24.8789 39.927 26.5652 38.2062 26.5652 35.9867C26.5652 33.7671 24.8789 32.0464 22.7038 32.0464ZM20.5287 62.6213H24.8789V67.0604H20.5287V62.6213ZM20.5287 45.1143H24.8789V49.5534H20.5287V45.1143ZM20.5287 53.9925H24.8789V58.1822H20.5287V53.9925ZM113.104 18.9784C110.684 17.2577 113.104 13.5418 115.279 15.2875L128.329 23.4175C129.771 24.1657 129.771 26.1359 128.329 27.1085L115.279 35.2385C113.104 36.7099 110.684 33.019 113.104 31.5476L123.246 25.1383L113.104 18.9784ZM89.6422 15.2875C92.0616 13.5667 94.2367 17.2577 91.8172 18.9784L81.9195 25.1383L91.8172 31.5476C94.2367 33.019 92.0616 36.7349 89.6422 35.2385L76.5918 27.1085C75.3943 26.1109 75.3943 24.1408 76.5918 23.4175L89.6422 15.2875ZM104.403 13.7912C105.381 11.0728 109.242 12.5692 108.265 15.2625L100.762 36.7099C99.7844 39.4282 95.6786 37.9319 96.6562 35.2385L104.403 13.7912ZM36.7318 73.9685V78.1582H32.3816V73.9685H36.7318ZM62.3438 73.9685V78.1582H57.9937V73.9685H62.3438ZM53.6436 73.9685V78.1582H49.5378V73.9685H53.6436ZM45.1877 73.9685V78.1582H40.8375V73.9685H45.1877ZM39.1268 33.7671V38.2062H34.7767V33.7671H39.1268ZM56.3074 33.7671V38.2062H51.9573V33.7671H56.3074ZM47.6071 33.7671V38.2062H43.5014V33.7671H47.6071ZM87.7115 72.2477L92.5504 78.4076C95.4587 77.41 99.0756 75.9387 102.693 73.7191C101.006 72.7215 99.54 71.2502 98.0981 69.5294C96.6562 67.5592 95.4342 65.589 94.9454 63.3695C91.8172 66.5866 89.3978 69.5294 87.7115 72.2477ZM89.8866 81.6247L83.8501 74.2179C80.9419 73.4697 77.5693 74.4673 75.3943 76.6868C70.5553 81.6247 71.2885 87.7846 68.6247 93.4457C75.6386 93.6951 88.6891 91.2261 89.6422 82.3479C89.6422 82.1235 89.8866 81.8741 89.8866 81.6247ZM98.5868 59.6785C98.5868 61.8981 99.7844 64.6164 101.495 66.836C103.181 69.0555 105.356 70.7763 107.287 71.2751C118.162 64.367 130.48 54.2668 137.738 44.8898C145.705 34.2909 143.775 31.8219 131.702 36.7598C120.826 41.4233 108.02 50.8003 98.5868 59.6785ZM141.135 47.5832C137.029 53.0199 131.237 58.4316 125.176 63.6189H151.277C153.208 63.6189 154.65 61.8981 154.65 59.9279V8.13005C154.65 6.15988 153.208 4.43911 151.277 4.43911H68.6247C66.694 4.43911 65.0077 5.9105 65.0077 8.13005V59.9279C65.0077 61.8981 66.694 63.6189 68.6247 63.6189H88.9334C90.131 62.1475 91.3529 60.9006 92.5504 59.6785C102.448 49.5783 117.454 37.9818 130.015 32.7945C146.218 25.8865 151.766 33.5177 141.135 47.5832ZM89.3978 133.921H51.4685V145.269H89.4222V133.921H89.3978ZM98.5868 149.708H42.2794C39.86 149.708 37.6849 151.678 37.6849 154.147C37.6849 156.865 39.86 158.835 42.2794 158.835H98.5868C101.006 158.835 103.181 156.865 103.181 154.147C103.181 151.678 101.006 149.708 98.5868 149.708ZM68.3803 122.325C67.1828 122.325 66.4496 121.327 66.4496 120.105C66.4496 118.883 67.1828 117.886 68.3803 117.886H71.2885C72.486 117.886 73.4636 118.883 73.4636 120.105C73.4636 121.327 72.486 122.325 71.2885 122.325H68.3803ZM4.3257 110.728V123.297C4.3257 126.739 6.98955 129.457 10.3621 129.457H130.48C133.852 129.457 136.761 126.739 136.761 123.297V110.728H4.3257Z" fill="black"/>
</svg>
