<svg width="165" height="145" viewBox="0 0 165 145" fill="none" xmlns="http://www.w3.org/2000/svg">
<path d="M19.4381 48.797V44.5215C19.4381 43.9284 19.669 43.3596 20.0801 42.9403C20.4911 42.5209 21.0487 42.2853 21.63 42.2853C22.2113 42.2853 22.7689 42.5209 23.1799 42.9403C23.591 43.3596 23.8219 43.9284 23.8219 44.5215V48.797C23.8219 49.39 23.591 49.9588 23.1799 50.3781C22.7689 50.7975 22.2113 51.0331 21.63 51.0331C21.0487 51.0331 20.4911 50.7975 20.0801 50.3781C19.669 49.9588 19.4381 49.39 19.4381 48.797ZM21.63 36.0778C22.2113 36.0778 22.7689 35.8422 23.1799 35.4229C23.591 35.0035 23.8219 34.4347 23.8219 33.8417V29.5662C23.8219 28.9731 23.591 28.4044 23.1799 27.985C22.7689 27.5656 22.2113 27.3301 21.63 27.3301C21.0487 27.3301 20.4911 27.5656 20.0801 27.985C19.669 28.4044 19.4381 28.9731 19.4381 29.5662V33.8417C19.4392 34.434 19.6707 35.0016 20.0816 35.42C20.4926 35.8384 21.0494 36.0778 21.63 36.0778ZM15.0805 41.3864H16.4395C17.0208 41.3864 17.5784 41.1508 17.9894 40.7315C18.4005 40.3121 18.6314 39.7433 18.6314 39.1503C18.6314 38.5572 18.4005 37.9884 17.9894 37.5691C17.5784 37.1497 17.0208 36.9141 16.4395 36.9141H15.0805C14.4992 36.9141 13.9416 37.1497 13.5306 37.5691C13.1195 37.9884 12.8886 38.5572 12.8886 39.1503C12.8886 39.7433 13.1195 40.3121 13.5306 40.7315C13.9416 41.1508 14.4992 41.3864 15.0805 41.3864ZM26.8731 41.3864H28.2321C28.8134 41.3864 29.371 41.1508 29.782 40.7315C30.1931 40.3121 30.424 39.7433 30.424 39.1503C30.424 38.5572 30.1931 37.9884 29.782 37.5691C29.371 37.1497 28.8134 36.9141 28.2321 36.9141H26.8731C26.2918 36.9141 25.7342 37.1497 25.3232 37.5691C24.9121 37.9884 24.6812 38.5572 24.6812 39.1503C24.6812 39.7433 24.9121 40.3121 25.3232 40.7315C25.7342 41.1508 26.2918 41.3864 26.8731 41.3864ZM71.4702 104.065C71.4711 102.849 71.8253 101.661 72.4882 100.65C73.1511 99.6394 74.0928 98.852 75.1943 98.3872C76.2958 97.9225 77.5077 97.8013 78.6767 98.0391C79.8457 98.2769 80.9193 98.8629 81.7619 99.7231C82.6044 100.583 83.1781 101.679 83.4103 102.872C83.6426 104.064 83.5229 105.301 83.0666 106.424C82.6102 107.547 81.8376 108.508 80.8464 109.183C79.8553 109.859 78.69 110.219 77.498 110.219C75.8993 110.217 74.3668 109.568 73.2367 108.414C72.1067 107.26 71.4713 105.696 71.4702 104.065ZM75.8541 104.065C75.8541 104.397 75.9505 104.721 76.1311 104.997C76.3118 105.273 76.5685 105.488 76.8689 105.615C77.1693 105.742 77.4998 105.775 77.8187 105.71C78.1376 105.645 78.4305 105.486 78.6605 105.251C78.8904 105.017 79.0469 104.718 79.1104 104.392C79.1738 104.067 79.1412 103.73 79.0168 103.423C78.8924 103.117 78.6817 102.855 78.4113 102.671C78.141 102.487 77.8231 102.388 77.498 102.388C77.0624 102.389 76.6449 102.566 76.3368 102.881C76.0288 103.195 75.8552 103.621 75.8541 104.065ZM155 129.347C155 129.94 154.769 130.509 154.358 130.928C153.947 131.348 153.39 131.583 152.808 131.583H2.19193C1.6106 131.583 1.05307 131.348 0.642001 130.928C0.230934 130.509 0 129.94 0 129.347C0 128.754 0.230934 128.185 0.642001 127.766C1.05307 127.346 1.6106 127.111 2.19193 127.111H20.7532C20.0706 126.362 19.4735 125.537 18.9734 124.651C17.8225 122.555 17.2517 120.18 17.322 117.779C17.3923 115.378 18.101 113.042 19.3723 111.02L34.6501 86.2567L34.0846 81.5564C33.9703 80.6134 34.0537 79.6563 34.3293 78.7487C34.6049 77.8411 35.0663 77.0035 35.683 76.2915C36.2997 75.5794 37.0577 75.0092 37.9067 74.6185C38.7557 74.2277 39.6764 74.0255 40.6078 74.025H63.794C65.4043 71.2763 66.2359 68.1259 66.1964 64.924C63.1276 63.7705 60.4782 61.6869 58.6038 58.9528C56.7293 56.2188 55.7196 52.9652 55.7102 49.6288V37.6163L44.505 20.6708C44.2822 20.3346 44.1533 19.9428 44.1322 19.5375C44.111 19.1323 44.1984 18.7287 44.3849 18.3703C44.5714 18.0118 44.8501 17.7118 45.1909 17.5026C45.5318 17.2933 45.9221 17.1827 46.3199 17.1825H52.2952L46.3769 6.45796C46.1758 6.09466 46.0783 5.6812 46.0955 5.26433C46.1127 4.84747 46.2439 4.44382 46.4742 4.09904C46.7046 3.75426 47.0249 3.4821 47.3989 3.31333C47.7729 3.14455 48.1858 3.0859 48.5908 3.14401L81.8161 7.87567C86.745 8.5978 91.2551 11.1038 94.5233 14.9363C97.7916 18.7688 99.6002 23.6724 99.619 28.7522V49.6288C99.6077 53.0205 98.5621 56.3245 96.6274 59.0828C94.6927 61.8411 91.9646 63.9169 88.8215 65.0224C88.794 68.1917 89.6253 71.3073 91.2239 74.025H114.406C115.338 74.0248 116.259 74.2266 117.108 74.6171C117.958 75.0075 118.716 75.5777 119.333 76.2898C119.951 77.0019 120.412 77.8397 120.688 78.7476C120.964 79.6556 121.048 80.613 120.933 81.5564L120.363 86.2567L135.641 111.015C136.91 113.039 137.616 115.377 137.683 117.779C137.75 120.181 137.176 122.556 136.023 124.651C135.523 125.536 134.927 126.361 134.247 127.111H152.808C153.39 127.111 153.947 127.346 154.358 127.766C154.769 128.185 155 128.754 155 129.347ZM71.7376 61.5206H83.5741C84.3099 61.5163 85.0438 61.4414 85.766 61.297C85.9535 61.2166 86.1513 61.1639 86.3534 61.1404C88.8798 60.5074 91.1258 59.0302 92.7338 56.944C94.3418 54.8578 95.2192 52.2827 95.2264 49.6288V28.7522C95.2115 24.7496 93.7863 20.8858 91.211 17.8661C88.6356 14.8463 85.0817 12.8719 81.198 12.3032L52.3609 8.19767L58.8271 19.8792C58.9742 20.1353 59.0698 20.4187 59.1084 20.7129C59.147 21.007 59.1279 21.3061 59.052 21.5926C58.9762 21.8792 58.8452 22.1474 58.6667 22.3818C58.4882 22.6161 58.2657 22.8119 58.0123 22.9576C57.7588 23.1034 57.4795 23.1962 57.1906 23.2307C56.9016 23.2651 56.6088 23.2406 56.3293 23.1585C56.0497 23.0763 55.789 22.9382 55.5622 22.7522C55.3355 22.5662 55.1474 22.3361 55.0088 22.0751L54.7677 21.6279H50.4276L59.7039 35.6619C59.7339 35.7243 59.7603 35.7886 59.7828 35.8542C59.8532 35.9867 59.9104 36.126 59.9538 36.2701C59.9983 36.4157 60.0276 36.5656 60.0415 36.7173C60.0415 36.7889 60.0809 36.8515 60.0809 36.9231V49.6378C60.0867 52.789 61.317 55.8094 63.502 58.0368C65.6871 60.2642 68.6486 61.517 71.7376 61.5206ZM68.761 74.0429H86.2351C85.1806 71.464 84.5867 68.7135 84.4815 65.9213C84.179 65.9213 83.8941 66.0107 83.6047 66.0107H71.7683C71.3562 66.0107 70.966 65.9213 70.5627 65.89C70.4449 68.6899 69.8346 71.4454 68.761 74.025V74.0429ZM38.4158 80.9973L38.9901 85.7513C39.165 86.1526 39.2184 86.598 39.1435 87.0304L43.9658 126.789C43.965 126.892 43.9577 126.995 43.9439 127.097H111.078C111.072 126.995 111.072 126.892 111.078 126.789L115.874 87.0304C115.801 86.5979 115.855 86.1531 116.028 85.7513L116.602 80.9973C116.641 80.6813 116.613 80.3604 116.52 80.0562C116.428 79.7521 116.272 79.4716 116.065 79.2336C115.857 78.9957 115.602 78.8057 115.317 78.6764C115.032 78.5471 114.722 78.4814 114.41 78.4839H40.5902C40.278 78.4814 39.9689 78.5471 39.6835 78.6764C39.3982 78.8057 39.1432 78.9957 38.9357 79.2336C38.7281 79.4716 38.5728 79.7521 38.4802 80.0562C38.3875 80.3604 38.3596 80.6813 38.3983 80.9973H38.4158ZM33.4007 127.111H39.5381L37.6004 111.064C35.1557 110.912 32.7028 110.963 30.2662 111.216H30.012C29.4306 111.25 28.8599 111.047 28.4254 110.652C27.9909 110.256 27.7282 109.701 27.6951 109.108C27.6619 108.515 27.8611 107.933 28.2487 107.489C28.6364 107.046 29.1807 106.778 29.7621 106.744C32.1844 106.478 34.6236 106.408 37.0568 106.534L35.4567 93.2513L23.0416 113.377C22.2072 114.73 21.7435 116.286 21.6987 117.884C21.654 119.482 22.0298 121.063 22.7871 122.462C23.5444 123.862 24.6555 125.029 26.0047 125.841C27.354 126.654 28.8921 127.083 30.4591 127.084L33.4007 127.111ZM124.502 127.111C126.069 127.111 127.608 126.682 128.958 125.869C130.308 125.056 131.42 123.888 132.177 122.488C132.935 121.088 133.31 119.506 133.265 117.908C133.22 116.309 132.755 114.752 131.919 113.399L119.509 93.2737L117.904 106.556C120.339 106.433 122.779 106.503 125.203 106.767C125.785 106.8 126.329 107.068 126.717 107.512C127.104 107.955 127.303 108.537 127.27 109.13C127.237 109.723 126.974 110.279 126.54 110.674C126.105 111.069 125.535 111.273 124.953 111.239C124.869 111.243 124.784 111.243 124.699 111.239C122.261 110.978 119.807 110.925 117.361 111.082L115.423 127.133H124.502V127.111ZM103.573 140.528C103.14 140.528 102.716 140.659 102.355 140.905C101.995 141.15 101.714 141.5 101.548 141.908C101.382 142.317 101.339 142.766 101.423 143.2C101.508 143.634 101.717 144.032 102.023 144.345C102.33 144.658 102.72 144.871 103.146 144.957C103.571 145.043 104.012 144.999 104.412 144.83C104.813 144.661 105.155 144.374 105.396 144.006C105.637 143.638 105.765 143.206 105.765 142.764C105.765 142.172 105.535 141.605 105.126 141.186C104.717 140.767 104.162 140.53 103.582 140.528H103.573ZM116.725 140.528C116.291 140.528 115.868 140.659 115.507 140.905C115.147 141.15 114.866 141.5 114.7 141.908C114.534 142.317 114.49 142.766 114.575 143.2C114.66 143.634 114.868 144.032 115.175 144.345C115.481 144.658 115.872 144.871 116.297 144.957C116.722 145.043 117.163 144.999 117.564 144.83C117.964 144.661 118.307 144.374 118.547 144.006C118.788 143.638 118.917 143.206 118.917 142.764C118.917 142.172 118.687 141.605 118.278 141.186C117.869 140.767 117.313 140.53 116.734 140.528H116.725ZM129.876 140.528C129.443 140.528 129.019 140.659 128.659 140.905C128.298 141.15 128.017 141.5 127.851 141.908C127.685 142.317 127.642 142.766 127.727 143.2C127.811 143.634 128.02 144.032 128.327 144.345C128.633 144.658 129.024 144.871 129.449 144.957C129.874 145.043 130.315 144.999 130.715 144.83C131.116 144.661 131.458 144.374 131.699 144.006C131.94 143.638 132.068 143.206 132.068 142.764C132.068 142.172 131.839 141.605 131.429 141.186C131.02 140.767 130.465 140.53 129.885 140.528H129.876ZM164.991 11.1807V30.1878C164.991 33.1531 163.837 35.997 161.781 38.0938C159.726 40.1906 156.938 41.3685 154.032 41.3685H135.286L125.506 52.3748C125.3 52.6062 125.049 52.791 124.769 52.9173C124.489 53.0436 124.186 53.1087 123.879 53.1082C123.61 53.1074 123.343 53.0574 123.09 52.9606C122.677 52.7979 122.322 52.5113 122.071 52.1384C121.821 51.7656 121.687 51.3241 121.687 50.8721V41.2478C119.09 40.8513 116.719 39.5166 115.005 37.4868C113.292 35.4569 112.349 32.8668 112.35 30.1878V11.1807C112.35 8.21538 113.504 5.37153 115.56 3.27474C117.615 1.17796 120.403 0 123.309 0H154.04C155.48 0 156.905 0.289196 158.234 0.851078C159.564 1.41296 160.772 2.23652 161.79 3.27474C162.808 4.31297 163.615 5.54552 164.166 6.90202C164.717 8.25852 165 9.71241 165 11.1807H164.991ZM160.607 11.1807C160.607 9.4015 159.915 7.69519 158.681 6.43712C157.448 5.17905 155.776 4.47227 154.032 4.47227H123.301C121.557 4.47227 119.884 5.17905 118.651 6.43712C117.418 7.69519 116.725 9.4015 116.725 11.1807V30.1878C116.725 31.967 117.418 33.6733 118.651 34.9314C119.884 36.1895 121.557 36.8962 123.301 36.8962H123.871C124.452 36.8962 125.009 37.1318 125.42 37.5512C125.832 37.9705 126.062 38.5393 126.062 39.1324V45.0626L132.682 37.6297C132.887 37.3989 133.138 37.2144 133.417 37.0881C133.696 36.9618 133.999 36.8964 134.304 36.8962H154.032C155.776 36.8962 157.448 36.1895 158.681 34.9314C159.915 33.6733 160.607 31.967 160.607 30.1878V11.1807ZM131.13 13.059C130.931 12.8467 130.693 12.6764 130.43 12.5579C130.167 12.4394 129.883 12.375 129.595 12.3683C129.307 12.3617 129.021 12.4129 128.753 12.5192C128.484 12.6254 128.239 12.7845 128.031 12.9875L121.92 18.949C121.706 19.1578 121.535 19.4087 121.419 19.6866C121.302 19.9645 121.242 20.2635 121.242 20.5657C121.242 20.868 121.302 21.167 121.419 21.4449C121.535 21.7228 121.706 21.9737 121.92 22.1825L128.031 28.144C128.239 28.3469 128.484 28.506 128.753 28.6123C129.021 28.7185 129.307 28.7697 129.595 28.7631C129.883 28.7564 130.167 28.692 130.43 28.5735C130.693 28.455 130.931 28.2848 131.13 28.0725C131.329 27.8601 131.485 27.6099 131.589 27.3361C131.693 27.0623 131.744 26.7703 131.737 26.4767C131.731 26.1831 131.667 25.8936 131.551 25.6249C131.435 25.3562 131.268 25.1135 131.06 24.9106L126.606 20.568L131.06 16.2209C131.27 16.0201 131.44 15.779 131.559 15.5114C131.677 15.2438 131.743 14.9549 131.753 14.6613C131.762 14.3677 131.715 14.075 131.613 13.8001C131.512 13.5252 131.358 13.2733 131.161 13.059H131.13ZM149.306 12.9875C148.885 12.5771 148.323 12.3538 147.741 12.3668C147.159 12.3798 146.606 12.628 146.204 13.0568C145.802 13.4856 145.583 14.0598 145.596 14.6532C145.609 15.2466 145.852 15.8105 146.272 16.2209L150.726 20.568L146.272 24.9106C146.064 25.1138 145.897 25.3568 145.781 25.6258C145.665 25.8948 145.602 26.1844 145.596 26.4783C145.589 26.7721 145.64 27.0643 145.744 27.3382C145.849 27.6121 146.005 27.8624 146.204 28.0747C146.403 28.287 146.642 28.4572 146.905 28.5756C147.169 28.694 147.453 28.7582 147.741 28.7647C148.029 28.7711 148.315 28.7196 148.584 28.6131C148.852 28.5066 149.098 28.3472 149.306 28.144L155.417 22.1825C155.631 21.9737 155.802 21.7228 155.918 21.4449C156.034 21.167 156.094 20.868 156.094 20.5657C156.094 20.2635 156.034 19.9645 155.918 19.6866C155.802 19.4087 155.631 19.1578 155.417 18.949L149.306 12.9875ZM142.41 12.585C142.15 12.4581 141.869 12.3846 141.581 12.3688C141.294 12.3529 141.006 12.395 140.735 12.4926C140.463 12.5902 140.213 12.7414 139.999 12.9376C139.784 13.1337 139.61 13.3711 139.486 13.636L133.892 25.5635C133.768 25.8284 133.696 26.1156 133.68 26.4089C133.665 26.7022 133.706 26.9957 133.802 27.2727C133.897 27.5497 134.045 27.8048 134.238 28.0233C134.43 28.2419 134.663 28.4197 134.922 28.5465C135.218 28.6899 135.542 28.7647 135.869 28.7657C136.283 28.7657 136.688 28.6465 137.037 28.4217C137.387 28.197 137.668 27.8759 137.846 27.4955L143.436 15.568C143.563 15.3033 143.637 15.0156 143.654 14.7214C143.672 14.4273 143.632 14.1325 143.538 13.8541C143.443 13.5756 143.296 13.3189 143.104 13.0988C142.912 12.8788 142.679 12.6996 142.419 12.5716L142.41 12.585Z" fill="black"/>
</svg>
